<svg width="33" height="32" viewBox="0 0 33 32" fill="none" xmlns="http://www.w3.org/2000/svg">
<path fill-rule="evenodd" clip-rule="evenodd" d="M6.5 6.75C6.5 6.33579 6.16421 6 5.75 6C5.33579 6 5 6.33579 5 6.75V22.75C5 24.2688 6.23122 25.5 7.75 25.5H26.75C27.1642 25.5 27.5 25.1642 27.5 24.75C27.5 24.3358 27.1642 24 26.75 24H7.75C7.05964 24 6.5 23.4404 6.5 22.75V6.75ZM23 8.75C23 8.33579 22.6642 8 22.25 8C21.8358 8 21.5 8.33579 21.5 8.75V20.75C21.5 21.1642 21.8358 21.5 22.25 21.5C22.6642 21.5 23 21.1642 23 20.75V8.75ZM13.75 10C14.1642 10 14.5 10.3358 14.5 10.75V20.75C14.5 21.1642 14.1642 21.5 13.75 21.5C13.3358 21.5 13 21.1642 13 20.75V10.75C13 10.3358 13.3358 10 13.75 10ZM18.25 13C18.6642 13 19 13.3358 19 13.75V20.75C19 21.1642 18.6642 21.5 18.25 21.5C17.8358 21.5 17.5 21.1642 17.5 20.75V13.75C17.5 13.3358 17.8358 13 18.25 13ZM10.25 17C10.6642 17 11 17.3358 11 17.75V20.75C11 21.1642 10.6642 21.5 10.25 21.5C9.83579 21.5 9.5 21.1642 9.5 20.75V17.75C9.5 17.3358 9.83579 17 10.25 17Z" fill="white"/>
</svg>
